# xmcd
#
# Track frame offsets: 
#        150
#        19857
#        35406
#        52724
#        70126
#        87674
#        105291
#        123201
#        142281
#        164071
#        181187
#        197843
#        217801
#        235509
#        254805
#        271350
#        287992
#
# Disc length: 4154 seconds
#
# Revision: 0
# Processed by: cddbd v1.5.2PL0 Copyright (c) Steve Scherf et al.
# Submitted via: ExactAudioCopyFreeDBPlugin 1.0
#
DISCID=f9103811
DTITLE=Leona Lewis - Spirit: The Deluxe Edition
DYEAR=2008
DGENRE=R&B
TTITLE0=Bleeding Love
TTITLE1=Whatever It Takes
TTITLE2=Homeless
TTITLE3=Better In Time (Single Mix)
TTITLE4=Yesterday
TTITLE5=Take A Bow
TTITLE6=I Will Be
TTITLE7=Angel
TTITLE8=Here I Am
TTITLE9=I'm You
TTITLE10=The Best You Never Had
TTITLE11=The First Time Ever I Saw Your Face
TTITLE12=Footprints In The Sand (Single Mix)
TTITLE13=A Moment Like This
TTITLE14=Forgive Me
TTITLE15=Misses Glass
TTITLE16=Run
EXTD=
EXTT0=
EXTT1=
EXTT2=
EXTT3=
EXTT4=
EXTT5=
EXTT6=
EXTT7=
EXTT8=
EXTT9=
EXTT10=
EXTT11=
EXTT12=
EXTT13=
EXTT14=
EXTT15=
EXTT16=
PLAYORDER=
